<svg width="1530" height="951" viewBox="0 0 1530 951" fill="none" xmlns="http://www.w3.org/2000/svg">
<g opacity="0.5">
<path d="M1538.51 696.231C1480.81 640.957 1390.03 576.5 1238.51 576.5C1067.01 576.5 1038.51 696.231 1034.01 734.5C1022.33 833.828 1049.96 934.847 1167.71 918.541C1233.01 909.5 1288.01 822.5 1288.01 759" stroke="url(#paint0_linear_70_224)" stroke-width="8"/>
<path d="M1279.95 714.305C1282.41 708.142 1291.07 707.98 1293.77 714.046L1308.88 748.089C1311.05 752.993 1307.52 758.53 1302.16 758.631L1273.23 759.173C1267.87 759.273 1264.13 753.872 1266.12 748.89L1279.95 714.305Z" fill="#6D6D6D" stroke="#6D6D6D"/>
</g>
<g opacity="0.5">
<path d="M302.512 954.497C308.962 943.606 443.515 742.5 590.512 742.5C683.515 742.5 735.106 779.431 813.012 822.5C870.512 854.287 1032.01 890.5 1121.51 856.5C1211.01 822.5 1217.01 757.7 1217.01 710C1217.01 646 1164.01 581.5 1046.01 581.5C951.508 581.5 902.009 617.5 835.009 655C781.585 684.901 739.512 696.002 671.012 690C580.174 682.041 528.012 572.5 495.012 559.5" stroke="url(#paint1_linear_70_224)" stroke-width="8"/>
<path d="M458.964 540.306C455.665 534.547 460.922 527.657 467.348 529.317L503.41 538.63C508.604 539.972 510.751 546.176 507.498 550.442L489.946 573.448C486.692 577.713 480.141 577.281 477.475 572.626L458.964 540.306Z" fill="#353535" stroke="#353535"/>
</g>
<g opacity="0.5">
<path d="M175.856 972C165.797 914.433 157.995 831.35 196.707 769.365C267.507 656 376.006 662.5 482.363 735.843C622.846 832.718 652.506 923.094 814.007 896C966.006 870.5 951.371 633.108 1017.01 471C1065.39 351.501 1245.04 329.071 1280.63 440.645C1317 554.674 1210.06 534 1228 485C1245.94 436 1316.22 481.672 1380.01 519.698" stroke="url(#paint2_linear_70_224)" stroke-width="8"/>
<path d="M1419.25 539.751C1422.62 545.472 1417.44 552.421 1411 550.835L1374.83 541.934C1369.62 540.652 1367.4 534.473 1370.61 530.171L1387.9 506.966C1391.1 502.663 1397.66 503.02 1400.38 507.645L1419.25 539.751Z" fill="#C2C2C2" stroke="#C2C2C2"/>
</g>
<g opacity="0.5">
<path d="M211.038 974.591C209.345 972.531 207.652 970.47 205.958 968.41C215.312 960.722 224.312 952.949 233.06 944.975C310.005 874.849 390.37 766.029 343.976 662.895C330.685 637.854 310.021 616.631 284.202 605.123C265.344 596.542 244.415 592.981 223.499 593.001C167.158 589.835 120.661 632.108 100.943 683.169C96.2322 694.035 92.1858 705.229 88.6159 716.572C86.0722 715.772 83.5284 714.972 80.9846 714.172C84.6232 702.611 88.7586 691.162 93.6041 679.985C113.288 627.737 164.337 581.277 223.499 585.001C245.287 584.979 267.402 588.69 287.507 597.837C315.055 610.097 337.116 632.859 351.022 659.105C400.035 769.909 315.868 879.721 238.45 950.887C229.594 958.959 220.492 966.82 211.038 974.591Z" fill="url(#paint3_linear_70_224)"/>
<path d="M64.7349 764.429C64.9661 767.542 68.7649 768.916 70.7989 766.621L104.898 728.154C106.544 726.297 105.759 723.297 103.404 722.445L65.4274 708.714C63.0718 707.862 60.6711 709.71 60.8582 712.23L64.7349 764.429Z" fill="#C2C2C2" stroke="url(#paint4_linear_70_224)"/>
</g>
<line x1="728" y1="957.067" x2="726.879" y2="151.022" stroke="url(#paint5_linear_70_224)" stroke-width="32"/>
<path d="M791.209 153.25H662.812L727.011 1.28516L791.209 153.25Z" fill="#00FFF2" stroke="#00FFF2"/>
<defs>
<linearGradient id="paint0_linear_70_224" x1="1015.41" y1="748.145" x2="1538.51" y2="748.145" gradientUnits="userSpaceOnUse">
<stop offset="0.5" stop-color="#6D6D6D"/>
<stop offset="1" stop-color="#6D6D6D" stop-opacity="0"/>
</linearGradient>
<linearGradient id="paint1_linear_70_224" x1="765.512" y1="581.5" x2="765.512" y2="954.497" gradientUnits="userSpaceOnUse">
<stop offset="0.5" stop-color="#353535"/>
<stop offset="1" stop-color="#353535"/>
</linearGradient>
<linearGradient id="paint2_linear_70_224" x1="1380.01" y1="669.001" x2="107.959" y2="669.001" gradientUnits="userSpaceOnUse">
<stop offset="0.25" stop-color="#C2C2C2"/>
<stop offset="1" stop-color="#C2C2C2" stop-opacity="0"/>
</linearGradient>
<linearGradient id="paint3_linear_70_224" x1="132.651" y1="643.604" x2="345.243" y2="868.986" gradientUnits="userSpaceOnUse">
<stop offset="0.6" stop-color="#C2C2C2"/>
<stop offset="1" stop-color="#C2C2C2" stop-opacity="0"/>
</linearGradient>
<linearGradient id="paint4_linear_70_224" x1="64.9473" y1="773.982" x2="86.044" y2="715.637" gradientUnits="userSpaceOnUse">
<stop offset="0.5" stop-color="#C2C2C2"/>
<stop offset="1" stop-color="#C2C2C2" stop-opacity="0"/>
</linearGradient>
<linearGradient id="paint5_linear_70_224" x1="743.379" y1="150.999" x2="744.5" y2="957.044" gradientUnits="userSpaceOnUse">
<stop stop-color="#00FFF2"/>
<stop offset="0.5" stop-color="#00D9FF"/>
<stop offset="1" stop-color="#24ABFF"/>
</linearGradient>
</defs>
</svg>
