<svg width="1429" height="644" viewBox="0 0 1429 644" fill="none" xmlns="http://www.w3.org/2000/svg">
<g opacity="0.5">
<path d="M-15 100.916C81.4006 72.2327 232.358 50.3259 286.832 118.231C378.5 232.5 348 435 525.5 444.5C736.933 455.816 743.651 118.231 976.37 163.351C1181.5 203.121 1205 407.5 1091 526C1038.02 581.073 940.5 595.16 821 567.5" stroke="url(#paint0_linear_70_225)" stroke-width="8"/>
<path d="M780.671 566.766C778.013 565.177 778.577 561.173 781.57 560.379L832.571 546.863C834.991 546.222 837.283 548.255 836.934 550.734L831.219 591.325C830.869 593.804 828.105 595.125 825.956 593.84L780.671 566.766Z" fill="#353535" stroke="#353535"/>
<path d="M125.001 651C125.001 593.175 206.149 553.378 293.769 523.785C384.915 493.001 434.501 360 434.501 310.5C434.502 164 241.994 171.938 141.001 251" stroke="url(#paint1_linear_70_225)" stroke-width="8"/>
<path d="M99.1594 282.007C96.1243 282.623 93.8435 279.283 95.5217 276.68L124.112 232.336C125.469 230.232 128.533 230.191 129.945 232.259L153.062 266.109C154.474 268.176 153.321 271.016 150.867 271.514L99.1594 282.007Z" fill="#6D6D6D" stroke="#6D6D6D"/>
<path d="M424.511 25.4852C423.964 21.988 427.895 19.5567 430.78 21.6073L473.786 52.1736C476.118 53.8314 476.006 57.3306 473.573 58.8358L438.712 80.3988C436.278 81.9041 433.097 80.4417 432.655 77.6145L424.511 25.4852Z" fill="#6D6D6D"/>
<path opacity="0.5" d="M1287 652C1285.82 645.739 1291.58 408.377 1150.5 330.5C1009.42 252.623 904.206 291.439 870.5 323C815.5 374.5 875.501 414.701 909 399.5C1028 345.5 985.5 165.5 855 118C658.283 46.398 524.5 153 454.5 67" stroke="url(#paint2_linear_70_225)" stroke-width="8"/>
<path d="M-6.5 426.339C18.0449 391.127 72.2316 346.735 175 360.5C303.461 377.706 290.5 586.5 456.5 575C537.673 569.376 625 418 886 472.5C1005.09 497.367 1181 575 1369.5 360.5" stroke="url(#paint3_linear_70_225)" stroke-width="8"/>
<path d="M1395.19 316.943C1397.8 315.281 1401.12 317.582 1400.49 320.614L1389.67 372.254C1389.16 374.705 1386.31 375.841 1384.25 374.416L1350.55 351.087C1348.49 349.662 1348.55 346.599 1350.66 345.256L1395.19 316.943Z" fill="#C2C2C2" stroke="#C2C2C2"/>
<path d="M677.597 668.602C678.756 666.2 679.915 663.798 681.073 661.397C671.337 656.699 661.931 652.077 652.438 647.303C561.577 599.638 439.526 539.456 451.495 422.7L451.42 423.296C454.251 409.19 456.69 395.294 460.931 381.96C468.902 356.189 483.342 332.896 500.148 311.467C523.266 280.254 563.767 252.858 600.293 272.205C609.414 276.57 617.758 282.826 625.253 289.907C627.084 287.969 628.916 286.031 630.747 284.092C622.807 276.595 613.84 269.824 603.746 264.989C562.308 243.19 517.249 274.572 493.852 306.532C476.708 328.388 461.646 352.581 453.3 379.561C448.874 393.483 446.373 407.811 443.58 421.704L443.505 422.301C431.553 545.269 558.401 606.848 648.844 654.45C658.381 659.246 667.826 663.887 677.597 668.602Z" fill="#C2C2C2"/>
<path d="M665.383 316.376C666.867 319.589 663.753 323.004 660.416 321.823L610.682 304.208C607.984 303.253 607.133 299.857 609.061 297.742L636.681 267.454C638.609 265.339 642.069 265.874 643.268 268.472L665.383 316.376Z" fill="#C2C2C2"/>
</g>
<defs>
<linearGradient id="paint0_linear_70_225" x1="1129.07" y1="339.467" x2="-15" y2="339.467" gradientUnits="userSpaceOnUse">
<stop offset="0.5" stop-color="#353535"/>
<stop offset="1" stop-color="#353535" stop-opacity="0"/>
</linearGradient>
<linearGradient id="paint1_linear_70_225" x1="279.751" y1="195.043" x2="279.751" y2="651" gradientUnits="userSpaceOnUse">
<stop offset="0.5" stop-color="#6D6D6D"/>
<stop offset="1" stop-color="#6D6D6D" stop-opacity="0"/>
</linearGradient>
<linearGradient id="paint2_linear_70_225" x1="1287" y1="359.5" x2="454.5" y2="359.5" gradientUnits="userSpaceOnUse">
<stop stop-color="#8F8F8F" stop-opacity="0"/>
<stop offset="0.5" stop-color="#8F8F8F"/>
</linearGradient>
<linearGradient id="paint3_linear_70_225" x1="-6.5" y1="448.2" x2="1369.5" y2="448.2" gradientUnits="userSpaceOnUse">
<stop stop-color="#C2C2C2" stop-opacity="0"/>
<stop offset="0.5" stop-color="#C2C2C2"/>
</linearGradient>
</defs>
</svg>
