<svg width="491" height="337" viewBox="0 0 491 337" fill="none" xmlns="http://www.w3.org/2000/svg">
<path d="M1.19467 73.0473C0.561812 68.2546 4.29157 64 9.12582 64H104.987C109 64 112.393 66.9738 112.918 70.9527L146.854 327.953C147.487 332.745 143.757 337 138.923 337H43.062C39.0486 337 35.6563 334.026 35.1309 330.047L1.19467 73.0473Z" fill="#24ABFF"/>
<path d="M126.028 41.0457C125.396 36.2536 129.126 32 133.959 32H229.821C233.835 32 237.228 34.9746 237.752 38.9543L275.856 327.954C276.488 332.746 272.758 337 267.925 337H172.063C168.049 337 164.657 334.025 164.132 330.046L126.028 41.0457Z" fill="#00D9FF"/>
<path d="M482.045 0C486.463 0.000141255 490.045 3.58181 490.045 8V329C490.045 333.418 486.463 337 482.045 337H300.178C296.177 337 292.791 334.044 292.251 330.08L279.783 238.58C279.129 233.777 282.862 229.5 287.71 229.5H324.046C328.464 229.5 332.046 233.082 332.046 237.5V283H346.206L346.404 216H284.566C280.546 216 277.15 213.016 276.633 209.028L250.706 9.02832C250.086 4.2418 253.813 0 258.64 0H482.045ZM428.549 64C415.294 64 404.549 74.7452 404.549 88C404.549 101.255 415.294 112 428.549 112C441.804 112 452.549 101.255 452.549 88C452.549 74.7452 441.804 64.0001 428.549 64Z" fill="#00FFF2"/>
</svg>
