<?xml version="1.0" encoding="UTF-8"?>
<svg version="1.1" xmlns="http://www.w3.org/2000/svg" width="1192" height="403">
<path d="M0 0 C0.55943909 9.27377063 0.98399337 18.54165137 1.24349213 27.82868385 C1.36815849 32.14352418 1.53651131 36.44674343 1.81054688 40.75488281 C3.52568889 68.44344544 3.52568889 68.44344544 -2.21356201 75.86077881 C-7.84806823 80.60753685 -14.20997758 83.36346239 -21.07775879 85.88653564 C-24.88448223 87.33701511 -28.08052714 89.2208404 -31.5390625 91.3671875 C-33.56731648 92.53713793 -35.5959453 93.70643882 -37.625 94.875 C-38.70185059 95.49576416 -39.77870117 96.11652832 -40.88818359 96.75610352 C-48.58173298 101.18897603 -56.28288868 105.6082621 -64 110 C-64 111.32 -64 112.64 -64 114 C-63.42894531 114.32049316 -62.85789062 114.64098633 -62.26953125 114.97119141 C-50.20316925 121.75012729 -38.18642184 128.60504511 -26.2434082 135.59912109 C-20.77637918 138.79970297 -15.30189688 141.98641368 -9.8125 145.1484375 C-9.21552811 145.49232513 -8.61855621 145.83621277 -8.00349426 146.19052124 C-5.09922164 147.86287815 -2.19395289 149.53347503 0.7121582 151.20263672 C1.75202881 151.80092285 2.79189941 152.39920898 3.86328125 153.015625 C4.78407471 153.54446289 5.70486816 154.07330078 6.65356445 154.61816406 C8.47062767 155.68824811 10.24541946 156.83027964 12 158 C16.86434407 158.53511148 19.62963015 157.48139558 23.796875 155.02734375 C24.90724121 154.3825708 26.01760742 153.73779785 27.16162109 153.07348633 C28.35786642 152.36169087 29.55398959 151.64969009 30.75 150.9375 C31.99877201 150.20666103 33.24829631 149.47710611 34.49853516 148.7487793 C37.07393403 147.24647357 39.64532211 145.73762515 42.21386719 144.22363281 C46.83687253 141.5024688 51.48996226 138.83513907 56.14404297 136.16748047 C59.34615828 134.32905882 62.54107378 132.47868203 65.734375 130.625 C69.98017251 128.16089738 74.24206517 125.72810207 78.515625 123.3125 C80.55231627 122.14624002 82.58878475 120.97959087 84.625 119.8125 C85.5742334 119.28374268 86.5234668 118.75498535 87.50146484 118.21020508 C88.35949707 117.71415771 89.2175293 117.21811035 90.1015625 116.70703125 C90.85775879 116.2788208 91.61395508 115.85061035 92.39306641 115.40942383 C93.18849854 114.71175903 93.18849854 114.71175903 94 114 C94 112.68 94 111.36 94 110 C93.34854004 109.62415771 92.69708008 109.24831543 92.02587891 108.86108398 C91.10210449 108.32813721 90.17833008 107.79519043 89.2265625 107.24609375 C88.1864502 106.64603516 87.14633789 106.04597656 86.07470703 105.42773438 C83.75014113 104.08662601 81.42559365 102.74548578 79.10107422 101.40429688 C73.61756461 98.24050871 68.13393256 95.07693453 62.64932251 91.91505432 C60.91899312 90.91750278 59.18874431 89.91981148 57.45849609 88.92211914 C55.30010617 87.67757514 53.14158597 86.43325704 50.98291016 85.18920898 C49.03807239 84.06766816 47.10163232 82.93135698 45.17645264 81.77639771 C42.06559437 79.94995409 42.06559437 79.94995409 38.83560181 78.7184906 C35.30617773 77.15019564 32.78173287 75.69638459 30 73 C28.30737441 67.44180681 28.59503872 62.10453763 28.828125 56.34765625 C28.85052997 54.72104675 28.86760049 53.09435581 28.87957764 51.46763611 C28.92522328 47.20255705 29.04290889 42.94244714 29.17602539 38.67932129 C29.29918204 34.3227055 29.35367093 29.96527964 29.4140625 25.60742188 C29.54244833 17.06934335 29.74700617 8.53529105 30 0 C33.99484347 0.71852927 36.81706673 1.82452742 40.33203125 3.88671875 C41.36521484 4.48806641 42.39839844 5.08941406 43.46289062 5.70898438 C45.12094727 6.68834961 45.12094727 6.68834961 46.8125 7.6875 C47.97942801 8.36980755 49.1467522 9.05143794 50.31445312 9.73242188 C52.71404049 11.13334131 55.11123378 12.53822353 57.50634766 13.94677734 C61.6914135 16.40787854 65.88581592 18.85288261 70.08032227 21.29785156 C72.04094391 22.44087808 74.00106082 23.58477075 75.96069336 24.72949219 C86.52219075 30.89792502 97.11949534 37.00393858 107.71777344 43.10888672 C113.14659942 46.23680148 118.57319281 49.36858448 124 52.5 C126.16665583 53.75001879 128.3333225 55.00001878 130.5 56.25 C134.83333333 58.75 139.16666667 61.25 143.5 63.75 C144.57419189 64.3697168 145.64838379 64.98943359 146.75512695 65.62792969 C148.90473634 66.86810761 151.05431358 68.10834127 153.20385742 69.34863281 C158.27309212 72.2735023 163.34264936 75.19780833 168.4133606 78.12011719 C170.80426597 79.49806938 173.19498672 80.87634172 175.58569336 82.25463867 C177.26983963 83.22540982 178.95425231 84.19571874 180.63867188 85.16601562 C181.66154297 85.75576172 182.68441406 86.34550781 183.73828125 86.953125 C184.63587158 87.47036133 185.53346191 87.98759766 186.45825195 88.52050781 C187.29702881 89.00874023 188.13580566 89.49697266 189 90 C190.29753346 90.55512882 190.29753346 90.55512882 191.62127972 91.12147236 C194 93 194 93 194.61523914 96.32082653 C194.63629175 97.72571249 194.62942812 99.13117289 194.60127258 100.53593445 C194.60554471 101.31028912 194.60981683 102.08464379 194.61421841 102.88246375 C194.62247568 105.48562018 194.59492006 108.08717682 194.56762695 110.69018555 C194.56621707 112.55267295 194.5670073 114.41516314 194.56983948 116.27764893 C194.57127736 121.34160146 194.54182742 126.40496496 194.50696969 131.46878028 C194.47576807 136.75786864 194.47278035 142.04696967 194.46684265 147.33613586 C194.45128598 157.35534372 194.41023279 167.37427963 194.3600952 177.39336759 C194.30425849 188.79826036 194.27672951 200.20316595 194.25161803 211.60816133 C194.19931858 235.07225847 194.11134082 258.53611402 194 282 C189.65441241 281.05409059 186.08931183 278.98587076 182.25 276.8125 C181.47213135 276.37615234 180.6942627 275.93980469 179.89282227 275.49023438 C159.16732416 263.80796397 159.16732416 263.80796397 151.35668945 258.82373047 C148.57554951 257.31270309 146.51101796 256.53118154 143.52416992 255.71142578 C138.13101752 253.93556143 134.02542122 251.97935271 131 247 C128.07052237 235.24379437 129.02194005 222.63270314 129.36914062 210.61907959 C129.48319238 206.04081814 129.50003741 201.46227211 129.52539062 196.8828125 C129.58918432 187.91898476 129.76018998 178.96072716 130 170 C125.86660465 170.73805894 122.94818379 171.95331587 119.30078125 174.0703125 C118.18719238 174.71186279 117.07360352 175.35341309 115.92626953 176.0144043 C114.72159644 176.71779364 113.51700879 177.42132934 112.3125 178.125 C111.05880399 178.85066108 109.80472904 179.57566783 108.55029297 180.30004883 C105.96551699 181.79394813 103.38301975 183.29167808 100.80224609 184.79248047 C97.25614684 186.85351791 93.70168342 188.89950044 90.14453125 190.94140625 C83.75342851 194.61114539 77.37404915 198.30073077 71 202 C69.9270166 202.62165039 68.8540332 203.24330078 67.74853516 203.88378906 C64.64121124 205.68719284 61.53858932 207.49840091 58.4375 209.3125 C57.49664551 209.85801514 56.55579102 210.40353027 55.58642578 210.96557617 C54.73161621 211.46806885 53.87680664 211.97056152 52.99609375 212.48828125 C52.24513428 212.92696533 51.4941748 213.36564941 50.72045898 213.81762695 C48.84845977 214.89988131 48.84845977 214.89988131 48 217 C47.90665568 219.86831552 47.87425189 222.71218264 47.88647461 225.58056641 C47.88625557 226.91236687 47.88625557 226.91236687 47.8860321 228.27107239 C47.88673045 231.21459369 47.89451919 234.15805221 47.90234375 237.1015625 C47.90420821 239.13894618 47.90563198 241.17633031 47.90663147 243.2137146 C47.91045445 248.58297966 47.92028289 253.95221777 47.93133545 259.32147217 C47.94155426 264.7976444 47.9461301 270.27382098 47.95117188 275.75 C47.96190533 286.50001185 47.97897915 297.25000369 48 308 C50.91840843 309.34689849 50.91840843 309.34689849 53.31469727 307.97460938 C54.22276123 307.43642578 55.1308252 306.89824219 56.06640625 306.34375 C57.09685059 305.74046875 58.12729492 305.1371875 59.18896484 304.515625 C60.30223145 303.85046875 61.41549805 303.1853125 62.5625 302.5 C63.72284191 301.81664063 64.883822 301.13436383 66.04541016 300.453125 C68.47203949 299.02889117 70.89580929 297.59995504 73.31787109 296.16796875 C79.14249126 292.73065202 85.01149683 289.37041071 90.875 286 C92.93524873 284.81311236 94.99515694 283.6256334 97.0546875 282.4375 C98.03663086 281.88449219 99.01857422 281.33148438 100.03027344 280.76171875 C103.06871728 279.01220162 103.06871728 279.01220162 106.07128906 276.83203125 C113.54877539 271.74686352 113.54877539 271.74686352 117.58935547 272.45166016 C120.25728972 273.75955369 122.57307207 275.28760392 125 277 C126.76331871 278.02090346 128.53444538 279.02842066 130.3125 280.0234375 C132.21008532 281.13764659 134.10584608 282.25496748 136 283.375 C138.09727448 284.60742074 140.19494595 285.8391661 142.29296875 287.0703125 C143.38013184 287.7087207 144.46729492 288.34712891 145.58740234 289.00488281 C152.60591122 293.10813467 159.65905017 297.1517349 166.70898438 301.20068359 C167.74990234 301.79961426 168.79082031 302.39854492 169.86328125 303.015625 C170.78407471 303.54446289 171.70486816 304.07330078 172.65356445 304.61816406 C174.47062767 305.68824811 176.24541946 306.83027964 178 308 C176.7220314 311.8339058 175.52549332 312.10636815 172.03125 314.00390625 C170.99427979 314.57423584 169.95730957 315.14456543 168.88891602 315.73217773 C167.77057373 316.33618408 166.65223145 316.94019043 165.5 317.5625 C163.18543129 318.83454357 160.87162963 320.10798382 158.55859375 321.3828125 C157.42663574 322.00446289 156.29467773 322.62611328 155.12841797 323.26660156 C151.23288683 325.4250432 147.38850119 327.6586966 143.5625 329.9375 C136.59296903 334.07428718 129.58497227 338.14122082 122.5625 342.1875 C121.45527588 342.82550537 120.34805176 343.46351074 119.20727539 344.12084961 C116.93662932 345.42889477 114.66587642 346.73675448 112.39501953 348.04443359 C106.92830025 351.19332051 101.46422354 354.3467849 96 357.5 C89.47767561 361.26365365 82.95486237 365.02644623 76.4296875 368.78515625 C66.75704287 374.35861319 57.08876369 379.9384155 47.453125 385.57568359 C44.46105076 387.32469907 41.46525246 389.06717876 38.46875 390.80859375 C35.01504849 392.81662976 31.57872459 394.84941084 28.15625 396.91015625 C26.72937301 397.75295361 25.30230477 398.59542731 23.875 399.4375 C23.25415527 399.82147949 22.63331055 400.20545898 21.99365234 400.60107422 C17.83094682 403.02535407 15.61236412 403.11519261 11 402 C8.52832031 400.83935547 8.52832031 400.83935547 6.078125 399.3671875 C5.14887207 398.81619385 4.21961914 398.2652002 3.26220703 397.69750977 C2.26817871 397.09608154 1.27415039 396.49465332 0.25 395.875 C-1.91360121 394.58906731 -4.07768002 393.3039379 -6.2421875 392.01953125 C-7.35819336 391.3538916 -8.47419922 390.68825195 -9.62402344 390.00244141 C-15.01253101 386.80627861 -20.44352595 383.68489786 -25.875 380.5625 C-28.05998436 379.30353904 -30.24487972 378.04442362 -32.4296875 376.78515625 C-33.51475586 376.16012207 -34.59982422 375.53508789 -35.71777344 374.89111328 C-41.14659942 371.76319852 -46.57319281 368.63141552 -52 365.5 C-54.16665583 364.24998121 -56.3333225 362.99998122 -58.5 361.75 C-78 350.5 -78 350.5 -97.5 339.25 C-98.57419189 338.6302832 -99.64838379 338.01056641 -100.75512695 337.37207031 C-102.90473634 336.13189239 -105.05431358 334.89165873 -107.20385742 333.65136719 C-112.27309212 330.7264977 -117.34264936 327.80219167 -122.4133606 324.87988281 C-124.80426597 323.50193062 -127.19498672 322.12365828 -129.58569336 320.74536133 C-131.26983963 319.77459018 -132.95425231 318.80428126 -134.63867188 317.83398438 C-135.66154297 317.24423828 -136.68441406 316.65449219 -137.73828125 316.046875 C-138.63587158 315.52963867 -139.53346191 315.01240234 -140.45825195 314.47949219 C-141.71641724 313.74714355 -141.71641724 313.74714355 -143 313 C-143.93352295 312.4834082 -144.8670459 311.96681641 -145.82885742 311.43457031 C-146.54533447 310.96116211 -147.26181152 310.48775391 -148 310 C-148 309.34 -148 308.68 -148 308 C-147.2879541 307.59386475 -146.5759082 307.18772949 -145.84228516 306.76928711 C-132.46622111 299.13789282 -119.09613456 291.49614037 -105.75 283.8125 C-104.6873291 283.20204834 -103.6246582 282.59159668 -102.52978516 281.96264648 C-101.02230713 281.09361694 -101.02230713 281.09361694 -99.484375 280.20703125 C-98.54142578 279.66643066 -97.59847656 279.12583008 -96.62695312 278.56884766 C-93.58176142 276.75022294 -90.68130564 274.7612396 -87.82519531 272.65893555 C-86 272 -86 272 -83.63696289 272.67797852 C-80.78211486 274.10923508 -78.0003635 275.61288799 -75.23046875 277.203125 C-74.10560059 277.84725342 -72.98073242 278.49138184 -71.82177734 279.1550293 C-70.61031296 279.85328589 -69.39888808 280.55161103 -68.1875 281.25 C-66.93713884 281.96742537 -65.68664896 282.68462645 -64.43603516 283.40161133 C-58.33085002 286.90619533 -52.24138099 290.4367379 -46.16796875 293.99609375 C-45.10489502 294.6190332 -44.04182129 295.24197266 -42.9465332 295.88378906 C-40.96001348 297.05034241 -38.97534353 298.22005396 -36.99291992 299.39355469 C-27.51682102 305.83168935 -27.51682102 305.83168935 -17 309 C-16.93049409 297.35184937 -16.87718563 285.70374808 -16.84456348 274.05543232 C-16.82890661 268.64666227 -16.80766774 263.2380341 -16.77368164 257.8293457 C-16.74108927 252.60980522 -16.72314715 247.39040122 -16.71536827 242.17076683 C-16.70982457 240.17925048 -16.69899912 238.18774161 -16.68280983 236.19628334 C-16.66103733 233.40713983 -16.65803302 230.61856051 -16.65942383 227.8293457 C-16.648638 227.00575562 -16.63785217 226.18216553 -16.6267395 225.33361816 C-16.65162804 220.72194514 -17.03178299 217.7570725 -20 214 C-22.31889508 212.21536322 -22.31889508 212.21536322 -25.06640625 210.7578125 C-26.61062256 209.88274048 -26.61062256 209.88274048 -28.18603516 208.98999023 C-29.30026855 208.37454346 -30.41450195 207.75909668 -31.5625 207.125 C-32.73300539 206.4662494 -33.90275263 205.80615004 -35.07177734 205.14477539 C-37.50179685 203.77141276 -39.93497414 202.40391111 -42.37060547 201.04052734 C-47.98532863 197.89162508 -53.55261062 194.66050439 -59.125 191.4375 C-60.71368896 190.52411865 -60.71368896 190.52411865 -62.33447266 189.59228516 C-67.86990617 186.40715745 -73.38131 183.18639077 -78.86328125 179.91015625 C-79.96720215 179.254104 -81.07112305 178.59805176 -82.20849609 177.92211914 C-84.31941822 176.66555708 -86.42545628 175.40074399 -88.52587891 174.12670898 C-89.93426025 173.29055054 -89.93426025 173.29055054 -91.37109375 172.4375 C-92.19536865 171.94121094 -93.01964355 171.44492188 -93.86889648 170.93359375 C-96.1148822 169.66589087 -96.1148822 169.66589087 -99 171 C-98.96145401 171.92326584 -98.92290802 172.84653168 -98.88319397 173.79777527 C-98.53865484 182.54962046 -98.30742977 191.29586783 -98.19947147 200.05395031 C-98.14007223 204.55663876 -98.03886109 209.0498242 -97.83764648 213.54858398 C-96.58620078 242.50350373 -96.58620078 242.50350373 -102.15078735 249.83291626 C-107.54020083 254.36294095 -113.6016823 256.82735488 -120.22915649 259.03256226 C-123.85233807 260.29759314 -126.76071741 262.00767225 -130.00390625 264.05078125 C-130.94218262 264.60040527 -131.88045898 265.1500293 -132.84716797 265.71630859 C-133.74322754 266.24305176 -134.63928711 266.76979492 -135.5625 267.3125 C-137.55579138 268.47820356 -139.54928014 269.64356969 -141.54296875 270.80859375 C-145.46038135 273.09955217 -145.46038135 273.09955217 -149.37744141 275.39111328 C-151.37403574 276.55695212 -153.37377789 277.71712907 -155.375 278.875 C-156.43460938 279.49117188 -157.49421875 280.10734375 -158.5859375 280.7421875 C-161 282 -161 282 -163 282 C-163.3974173 257.53086541 -163.69704255 233.06221544 -163.88080692 208.59050179 C-163.96840798 197.22720483 -164.08779016 185.86591477 -164.2824707 174.50390625 C-164.45210998 164.59862833 -164.56163215 154.69480365 -164.59950441 144.78811347 C-164.62164064 139.54335506 -164.67349688 134.30275316 -164.79741096 129.05932999 C-164.91322696 124.11833087 -164.94832856 119.18317717 -164.92283058 114.24094963 C-164.92749054 112.43231152 -164.9610976 110.62346908 -165.02649307 108.81600761 C-165.40928651 97.68573528 -165.40928651 97.68573528 -163 93 C-158.83115146 88.74236115 -153.48162793 86.3033538 -148.08757961 83.94361091 C-145.08221914 82.58515209 -142.32264093 80.93176356 -139.49609375 79.234375 C-137.47690242 78.07232581 -135.45736763 76.91087325 -133.4375 75.75 C-124.94310062 70.85913459 -116.4623405 65.94612476 -108 61 C-96.45281274 54.25280507 -84.87097832 47.56660602 -73.28222656 40.89111328 C-66.77782059 37.14348395 -60.27624205 33.39095039 -53.7746582 29.63842773 C-48.22313708 26.43467538 -42.66979203 23.23415423 -37.11328125 20.0390625 C-34.84629246 18.73448223 -32.57936438 17.42979644 -30.3125 16.125 C-29.22831787 15.50165771 -28.14413574 14.87831543 -27.02709961 14.23608398 C-20.37977341 10.40445758 -13.76685072 6.52333402 -7.27270508 2.43603516 C-4.58230482 0.77658161 -3.23531071 0 0 0 Z " fill="#FFFFFF" transform="translate(163,0)"/>
<path d="M0 0 C16.17 0 32.34 0 49 0 C49.0093457 3.73425293 49.01869141 7.46850586 49.02832031 11.31591797 C49.06212385 23.66931781 49.11749199 36.02254261 49.18390274 48.37580681 C49.22363388 55.86382255 49.25605631 63.35173411 49.27099609 70.83984375 C49.2840435 77.37001415 49.31108634 83.89995473 49.35461307 90.42999566 C49.37715904 93.88446767 49.39291485 97.33865696 49.39188385 100.79320908 C49.39099326 104.65908668 49.42136276 108.52439093 49.45410156 112.39013672 C49.4490712 113.52302628 49.44404083 114.65591583 49.43885803 115.82313538 C49.54783297 124.16900655 50.99162338 131.25985609 56.3125 137.875 C66.09651366 145.61119685 76.71402145 147.23198582 89 146 C96.86748255 144.32970214 103.62597977 140.9230987 108.2421875 134.1875 C113.04584245 125.49183265 113.2992103 115.73631394 113.31884766 106.03271484 C113.32889328 104.88033325 113.3389389 103.72795166 113.34928894 102.54064941 C113.37996857 98.76408345 113.39711376 94.98758789 113.4140625 91.2109375 C113.43278638 88.57963461 113.45236069 85.94833765 113.4727478 83.31704712 C113.51934062 77.11961973 113.55617836 70.92217519 113.58942068 64.72466338 C113.62778077 57.66284171 113.67715403 50.60111008 113.72740483 43.53936458 C113.8304343 29.02630769 113.91833465 14.5131933 114 0 C129.84 0 145.68 0 162 0 C162.09062089 16.54319146 162.16416722 33.08616798 162.20724869 49.62953949 C162.22779215 57.31252488 162.25575349 64.99534404 162.30175781 72.67822266 C162.34187948 79.38192731 162.36749236 86.08551146 162.37635398 92.78933287 C162.38152637 96.33238889 162.39350682 99.87510046 162.42292023 103.41804504 C162.6051228 126.2699093 162.05810545 147.32887809 145.26953125 164.7578125 C144.52058594 165.49773437 143.77164063 166.23765625 143 167 C142.38511719 167.63679687 141.77023437 168.27359375 141.13671875 168.9296875 C124.94651866 184.5305227 99.39613956 187.55290683 77.8828125 187.1875 C62.24431838 186.43232121 47.08544288 184.31310014 33 177 C32.20207031 176.59265625 31.40414063 176.1853125 30.58203125 175.765625 C20.06293247 169.95973482 12.45000157 161.64211664 7 151 C6.62230469 150.29488281 6.24460937 149.58976563 5.85546875 148.86328125 C0.58338981 138.18090407 -0.45098867 126.39777128 -0.34057617 114.66064453 C-0.34101425 113.41014313 -0.34145233 112.15964172 -0.34190369 110.87124634 C-0.34019044 107.49179343 -0.32530476 104.11291289 -0.30418181 100.73356104 C-0.28523307 97.1835469 -0.28365042 93.63352249 -0.28010559 90.08346558 C-0.27083791 83.38315917 -0.24629691 76.68300228 -0.21605712 69.98276126 C-0.18234718 62.34536008 -0.1659857 54.70795118 -0.15097082 47.07049394 C-0.11974157 31.38022834 -0.06479696 15.69016834 0 0 Z " fill="#FFFFFF" transform="translate(450,105)"/>
<path d="M0 0 C15.84 0 31.68 0 48 0 C53.00023156 15.62906604 53.00023156 15.62906604 55.171875 22.43554688 C56.63781967 27.03012803 58.10436915 31.62450811 59.57519531 36.2175293 C64.97289409 53.0759334 70.31180057 69.92683279 75 87 C75.15331787 86.37923584 75.30663574 85.75847168 75.46459961 85.11889648 C80.30159826 65.79322386 86.04025789 46.7752373 91.9375 27.75 C92.32565887 26.49621552 92.71381775 25.24243103 93.11373901 23.95065308 C94.22777107 20.3567843 95.34526847 16.76402045 96.46484375 13.171875 C96.80620361 12.07418289 97.14756348 10.97649078 97.49926758 9.84553528 C97.81395996 8.84044418 98.12865234 7.83535309 98.45288086 6.79980469 C98.72853378 5.91766296 99.00418671 5.03552124 99.28819275 4.12664795 C100 2 100 2 101 0 C115.85 0 130.7 0 146 0 C143.75006686 10.12469911 143.75006686 10.12469911 142.46630859 13.86572266 C142.17711548 14.71623703 141.88792236 15.5667514 141.58996582 16.44303894 C141.1239093 17.7899456 141.1239093 17.7899456 140.6484375 19.1640625 C140.15216858 20.61737724 140.15216858 20.61737724 139.64587402 22.10005188 C138.56005599 25.27658591 137.46755903 28.45077889 136.375 31.625 C135.60776403 33.86515428 134.84100725 36.10547272 134.07470703 38.34594727 C132.49448546 42.96487137 130.91199725 47.58301017 129.328125 52.20068359 C127.15453571 58.54245395 124.99598124 64.88923494 122.84375 71.23828125 C119.89037966 79.95027873 116.92692514 88.65874769 113.95077515 97.36299133 C112.28671368 102.22989006 110.62626572 107.09795726 108.97363281 111.96875 C107.31108005 116.86698691 105.6368275 121.76108769 103.95465088 126.65261841 C103.33170474 128.46985995 102.71250928 130.28839281 102.09759521 132.10836792 C88.86872831 171.22635701 88.86872831 171.22635701 71.875 181.25390625 C60.0303655 186.9858633 47.12515012 186.25144455 34.3125 186.125 C32.53190608 186.11494839 30.75130667 186.1058264 28.97070312 186.09765625 C24.6468856 186.07753611 20.32384618 186.03835842 16 186 C16 174.45 16 162.9 16 151 C27.625 150.1875 27.625 150.1875 31.25634766 149.95385742 C39.06073117 149.40057585 39.06073117 149.40057585 46 146 C49.32228214 141.34105624 48.82886942 135.43216671 48 130 C47.14044675 126.7102181 46.0538019 123.51273731 44.94140625 120.30078125 C44.628013 119.38001801 44.31461975 118.45925476 43.99172974 117.5105896 C41.00868604 108.84071665 37.75365829 100.28368771 34.40460205 91.74969482 C32.56556234 87.06155535 30.74564367 82.36597107 28.921875 77.671875 C28.53355499 76.67380829 28.14523499 75.67574158 27.74514771 74.64743042 C23.13658002 62.79671138 18.57747937 50.92711175 14.03302002 39.05169678 C13.10054244 36.61676171 12.16660197 34.18238632 11.23114014 31.74859619 C9.91365083 28.32069239 8.6008102 24.89104183 7.2890625 21.4609375 C6.89914124 20.44912415 6.50921997 19.43731079 6.10748291 18.39483643 C5.74153015 17.43486755 5.37557739 16.47489868 4.99853516 15.48583984 C4.68340973 14.66368988 4.3682843 13.84153992 4.04360962 12.99447632 C2.55070209 8.71080918 1.30351393 4.34504643 0 0 Z " fill="#FFFFFF" transform="translate(949,148)"/>
<path d="M0 0 C9.17024782 8.45382221 14.3149443 20.99480312 15.16265488 33.37556458 C15.42207803 40.33702375 15.34421117 47.3009659 15.29296875 54.265625 C15.28736477 56.51291621 15.28309846 58.76021112 15.28010559 61.00750732 C15.26872003 66.88635602 15.23930759 72.76497792 15.20599365 78.64373779 C15.16972271 85.71657119 15.15610166 92.78948095 15.13863373 99.86238098 C15.1096661 110.57507778 15.05213473 121.28727818 15 132 C0.15 132 -14.7 132 -30 132 C-30.02578125 125.76351562 -30.0515625 119.52703125 -30.078125 113.1015625 C-30.10330904 109.13667837 -30.12965397 105.17186934 -30.16015625 101.20703125 C-30.20839816 94.92203545 -30.25247786 88.63721362 -30.27099609 82.35205078 C-30.2862059 77.28140985 -30.32072811 72.21122587 -30.36830902 67.14078903 C-30.3830783 65.21208049 -30.39103844 63.28330669 -30.39188385 61.35454178 C-29.97787004 45.95713398 -29.97787004 45.95713398 -36.34063721 32.37979126 C-40.39890354 28.57538745 -44.94649014 26.99514545 -50.45703125 27.00390625 C-57.2770391 27.48447652 -62.29042928 28.97300855 -67.125 34 C-75.05864915 44.28806067 -74.60360519 55.87282666 -74.609375 68.23046875 C-74.62437957 70.07564224 -74.64111144 71.92080241 -74.65948486 73.76594543 C-74.7029152 78.58762274 -74.72310317 83.40911894 -74.73822021 88.23095703 C-74.76134501 94.03492097 -74.81374625 99.83868763 -74.86116028 105.6424942 C-74.92969864 114.42838055 -74.96137042 123.21370224 -75 132 C-89.85 132 -104.7 132 -120 132 C-120 85.8 -120 39.6 -120 -8 C-105.81 -8 -91.62 -8 -77 -8 C-76.505 0.91 -76.505 0.91 -76 10 C-75.01 8.824375 -74.02 7.64875 -73 6.4375 C-54.1761794 -14.87106492 -22.42117297 -18.99571599 0 0 Z " fill="#FFFFFF" transform="translate(754,156)"/>
<path d="M0 0 C14.52 0 29.04 0 44 0 C44 14.19 44 28.38 44 43 C52.25 43 60.5 43 69 43 C69 55.21 69 67.42 69 80 C60.75 80 52.5 80 44 80 C44.08553101 88.01488147 44.179296 96.02953721 44.28752708 104.04413986 C44.33745556 107.76571684 44.38378574 111.48726591 44.421875 115.20898438 C44.45877163 118.80120413 44.50514317 122.39318843 44.55806351 125.9852066 C44.57658426 127.35507321 44.59170081 128.72499024 44.60334396 130.09493256 C44.62024532 132.01488656 44.65041426 133.93470986 44.68115234 135.85449219 C44.69447601 136.94703308 44.70779968 138.03957397 44.7215271 139.16522217 C44.99801986 141.97984267 45.47539843 143.64127942 47 146 C53.67310635 150.09243136 61.4683459 149 69 149 C69 160.22 69 171.44 69 183 C51.44683403 185.34042213 51.44683403 185.34042213 44.8125 185.25 C44.05912354 185.24323242 43.30574707 185.23646484 42.52954102 185.22949219 C32.73233636 185.04963103 23.64725855 183.84893003 15 179 C14.30003906 178.61328125 13.60007812 178.2265625 12.87890625 177.828125 C6.15615054 173.50726121 2.90089752 166.75247097 0.4365387 159.29486084 C-0.18510659 156.02690445 -0.1304059 152.79058808 -0.11352539 149.47753906 C-0.11367142 148.72593002 -0.11381744 147.97432098 -0.1139679 147.19993591 C-0.11327262 144.72180266 -0.10549826 142.24374508 -0.09765625 139.765625 C-0.0957907 138.04498333 -0.09436744 136.32434112 -0.09336853 134.60369873 C-0.08955413 130.07947315 -0.07973302 125.55527977 -0.06866455 121.03106689 C-0.05842729 116.41264278 -0.05386595 111.79421345 -0.04882812 107.17578125 C-0.03810979 98.11717109 -0.0205217 89.05859326 0 80 C-6.27 80 -12.54 80 -19 80 C-19 67.79 -19 55.58 -19 43 C-12.73 43 -6.46 43 0 43 C0 28.81 0 14.62 0 0 Z " fill="#FFFFFF" transform="translate(870,105)"/>
<path d="M0 0 C14.85 0 29.7 0 45 0 C45 46.2 45 92.4 45 140 C30.15 140 15.3 140 0 140 C0 93.8 0 47.6 0 0 Z " fill="#FFFFFF" transform="translate(791,148)"/>
<path d="M0 0 C6.28160388 6.00071916 10.77764347 13.22644959 11.2578125 22.0078125 C11.49615833 34.00325003 10.41977318 42.97910857 1.8359375 52.01953125 C-7.45352771 60.83504415 -15.56544667 63.46176791 -28.4140625 63.19140625 C-38.7682466 62.18689585 -46.86668521 56.82118469 -53.46875 48.9921875 C-60.21638431 39.95166775 -60.85010175 30.83109207 -60.078125 19.8359375 C-58.25972084 11.10540668 -53.84551346 3.30719223 -46.578125 -1.984375 C-31.10008719 -11.51995187 -14.49507352 -11.42211793 0 0 Z M-45.078125 10.8359375 C-50.29573947 17.69337366 -51.63947944 23.69108804 -50.6015625 32.1328125 C-48.96797398 40.56895621 -44.09613033 46.03240481 -37.078125 50.8359375 C-29.84003317 54.38018596 -22.53358293 54.66100028 -14.91796875 52.11328125 C-7.88745547 48.98409326 -2.78457492 44.05044135 0.359375 37.0234375 C2.76297614 30.15600566 3.03903379 23.94622609 0.296875 17.1484375 C-4.14979348 8.34838729 -9.81440672 3.92384359 -19.078125 0.8359375 C-29.55524557 -0.38435941 -38.23750425 2.58695366 -45.078125 10.8359375 Z " fill="#FFFFFF" transform="translate(1181.078125,157.1640625)"/>
<path d="M0 0 C14.85 0 29.7 0 45 0 C45 12.21 45 24.42 45 37 C30.15 37 15.3 37 0 37 C0 24.79 0 12.58 0 0 Z " fill="#FFFFFF" transform="translate(791,93)"/>
<path d="M0 0 C3.17625 -0.0825 6.3525 -0.165 9.625 -0.25 C10.6145166 -0.28641602 11.6040332 -0.32283203 12.62353516 -0.36035156 C18.40954762 -0.43286678 21.5990505 0.15451015 26 4 C27.21977329 6.43954658 27.20153813 8.15305849 27.25 10.875 C27.27578125 11.73867187 27.3015625 12.60234375 27.328125 13.4921875 C26.93891832 16.46683852 25.86113325 17.70673027 24 20 C24.12513441 24.62997329 26.72272562 28.10659542 29 32 C29 32.66 29 33.32 29 34 C25.81617009 34.63676598 23.15150188 34.87455471 20 34 C18.08427348 31.56298735 16.81018912 29.0579106 15.41796875 26.29296875 C14.11441958 23.63779932 14.11441958 23.63779932 10.625 22.875 C9.75875 22.91625 8.8925 22.9575 8 23 C8 26.63 8 30.26 8 34 C5.36 34 2.72 34 0 34 C0 22.78 0 11.56 0 0 Z M8 6 C8 9.3 8 12.6 8 16 C12.0100934 16.17864631 12.0100934 16.17864631 16 16 C18.30662599 14.11340125 18.30662599 14.11340125 18.3125 11 C18.209375 10.01 18.10625 9.02 18 8 C14.3558226 5.5705484 12.28758728 5.83820425 8 6 Z " fill="#FFFFFF" transform="translate(1144,167)"/>
</svg>
