<?xml version="1.0" encoding="UTF-8"?>
<svg version="1.1" xmlns="http://www.w3.org/2000/svg" width="833" height="596">
<path d="M0 0 C2.74427182 -0.00073018 5.48853913 -0.00289966 8.23280978 -0.00549722 C17.95865373 -0.01465785 27.68448432 -0.01884511 37.41033244 -0.01804566 C45.2576842 -0.01751677 53.10498565 -0.02449955 60.95232463 -0.03855348 C100.75694164 -0.10818784 140.5399467 -0.04627039 180.33098674 1.09303832 C181.0649943 1.11398378 181.79900186 1.13492923 182.55525208 1.1565094 C386.02192678 7.01119496 386.02192678 7.01119496 426.08879924 48.68288207 C466.22904452 92.25882913 461.81680701 174.93129076 464.11351848 230.06319213 C464.19799517 232.07019769 464.28755526 234.07698737 464.37737346 236.08376098 C474.07250587 457.57582155 474.07250587 457.57582155 424.74504924 532.40944457 C423.90586955 533.3195227 423.06668986 534.22960082 422.20208049 535.16725707 C421.6207133 535.8298352 421.03934611 536.49241332 420.44036174 537.17506957 C377.13988886 584.07482608 281.3129159 575.16411748 223.72307658 577.47194457 C216.19591096 577.7649062 208.66800649 578.03389295 201.13958049 578.29225707 C200.02409831 578.33086852 198.90861613 578.36947997 197.75933146 578.40926147 C189.96722694 578.67415664 182.17442291 578.90098475 174.38058925 579.10855269 C172.09033306 579.17026833 169.80015568 579.23452075 167.50997233 579.29887938 C130.24746378 580.33062449 92.98529351 580.36864425 55.71173453 580.35548139 C53.24576059 580.3547515 50.77978702 580.35450505 48.31381297 580.35439467 C-1.37318993 580.35100709 -51.02850646 580.16436567 -100.6852715 578.24810576 C-102.84053759 578.16562612 -104.99587658 578.0853869 -107.15125203 578.00581908 C-208.54334688 574.2587034 -208.54334688 574.2587034 -252.79791951 567.16725707 C-253.76826131 567.01289184 -254.73860311 566.8585266 -255.7383492 566.69948363 C-285.93817244 561.72056541 -311.57797757 547.64621779 -329.98541951 522.54225707 C-358.15361032 482.63131664 -357.20746459 423.40003602 -359.92291951 376.16725707 C-359.96153096 375.49859618 -360.00014241 374.82993529 -360.03992391 374.14101195 C-360.27736251 369.95872836 -360.48870999 365.77565232 -360.68363118 361.59117675 C-360.7625355 359.91770988 -360.84470973 358.2443951 -360.92954183 356.57121825 C-362.0240306 334.67346444 -361.99898056 312.77401359 -361.98541951 290.85475707 C-361.98515264 289.88872684 -361.98488576 288.9226966 -361.9846108 287.92739272 C-361.97488214 259.86962565 -361.93655445 231.85210698 -359.98474813 203.84883666 C-359.7817581 200.93528983 -359.58656738 198.02126462 -359.39118123 195.10719848 C-351.06443548 72.72674359 -351.06443548 72.72674359 -313.48371053 39.00734496 C-262.54136089 -4.71444498 -169.03028279 4.33903672 -106.54791951 2.04225707 C-105.50348683 2.00364562 -104.45905416 1.96503417 -103.382972 1.92525268 C-68.92865426 0.67333594 -34.47642103 0.00521014 0 0 Z M-30.79791951 167.16725707 C-30.79791951 248.01725707 -30.79791951 328.86725707 -30.79791951 412.16725707 C-26.91330514 410.61341132 -23.62606394 409.02961019 -20.02838826 406.96413207 C-18.90480916 406.32080932 -17.78123006 405.67748656 -16.62360311 405.01466918 C-15.4108023 404.31565835 -14.19807632 403.61651768 -12.98541951 402.91725707 C-11.72331973 402.19254227 -10.4611112 401.46801683 -9.19879842 400.74367309 C-0.35657691 395.66432774 8.45826683 390.53820603 17.25994182 385.38893676 C24.55778849 381.12003166 31.87552499 376.88667958 39.20208049 372.66725707 C47.55010497 367.85880984 55.88456352 363.02828612 64.20208049 358.16725707 C73.61198379 352.66780171 83.04678612 347.21276511 92.49114299 341.77272582 C99.74159538 337.59376579 106.97696318 333.38985201 114.20208049 329.16725707 C122.51960135 324.30622575 130.8543891 319.47628692 139.20208049 314.66725707 C142.44240546 312.79839238 145.68244572 310.92903556 148.92229533 309.05934691 C151.14868545 307.77495482 153.37559131 306.49145637 155.60295939 305.20876098 C158.90924961 303.30323999 162.21226443 301.39215513 165.51458049 299.47975707 C166.51682658 298.90354613 167.51907268 298.3273352 168.55168986 297.73366332 C173.02898439 295.13454279 177.29090659 292.59474635 181.20208049 289.16725707 C180.6310258 288.84676391 180.05997111 288.52627074 179.47161174 288.19606566 C167.38833767 281.4076285 155.35647401 274.54036799 143.39495158 267.53957152 C132.7856126 261.33128904 122.13579546 255.19396933 111.48430705 249.05837035 C106.05548106 245.93045559 100.62888768 242.79867259 95.20208049 239.66725707 C93.03542466 238.41723828 90.86875799 237.16723829 88.70208049 235.91725707 C23.70208049 198.41725707 23.70208049 198.41725707 20.4479301 196.53981566 C18.29515233 195.29785963 16.14232085 194.05599667 13.989434 192.81422973 C8.95591134 189.91078794 3.92290001 187.00647207 -1.10813069 184.09871459 C-2.88154559 183.07380304 -4.65513597 182.04919584 -6.42877889 181.02467895 C-8.64787725 179.74272969 -10.86664967 178.460216 -13.08502889 177.1770227 C-14.09500936 176.59372191 -15.10498982 176.01042113 -16.14557576 175.40944457 C-17.02221883 174.90268188 -17.89886189 174.39591918 -18.8020699 173.87380004 C-22.78264736 171.60632091 -26.7933194 169.39203491 -30.79791951 167.16725707 Z " fill="#FEFEFE" transform="translate(364.79791951179504,7.832742929458618)"/>
</svg>
